Jump_normalized_Motion_pl02
version=1
nRows=10
nColumns=43
inDegrees=yes
endheader
time		pelvis_tilt		pelvis_list		pelvis_rotation		pelvis_tx		pelvis_ty		pelvis_tz		hip_flexion_r		hip_adduction_r		hip_rotation_r		knee_angle_r		ankle_angle_r		subtalar_angle_r		mtp_angle_r		hip_flexion_l		hip_adduction_l		hip_rotation_l		knee_angle_l		ankle_angle_l		subtalar_angle_l		mtp_angle_l		lumbar_extension		lumbar_bending		lumbar_rotation		neck_flexion		neck_lateral_bending		neck_rotation		arm_flex_r		arm_add_r		arm_rot_r		elbow_flex_r		pro_sup_r		wrist_flex_r		wrist_dev_r		hand_finger_flex_r		arm_flex_l		arm_add_l		arm_rot_l		elbow_flex_l		pro_sup_l		wrist_flex_l		wrist_dev_l		hand_finger_flex_l		
0.406667		4.209206		-31.442407		90.226926		0.005527		1.717627		1.793683		88.826194		-14.593988		6.296288		-132.036666		47.135996		11.825242		-22.708977		90.176856		-9.621921		5.043102		-133.586645		45.341788		-9.445727		-32.969051		-31.650285		1.950917		3.160352		41.840671		0.505618		6.030954		111.263331		-20.690700		35.534087		75.867694		59.330807		-17.244819		-20.739694		59.917234		115.657783		-21.335291		44.255084		78.293292		69.185019		-48.735302		1.122194		81.071333		
0.409141		4.223251		-31.795748		90.190693		0.005731		1.718605		1.790731		88.713849		-14.452614		6.261614		-131.820664		47.017761		11.819413		-22.647838		90.027182		-9.672896		5.069560		-133.363514		45.326724		-9.365774		-32.945297		-31.195452		1.909862		3.231541		41.729425		0.536584		5.948992		112.241114		-20.480454		35.905481		75.432824		59.169177		-17.417847		-20.654916		59.683105		116.673008		-21.046969		44.614292		77.822796		69.109890		-48.685590		1.149128		81.163397		
0.411616		4.282266		-31.948258		90.096288		0.006190		1.720073		1.787505		88.339965		-14.179664		6.135857		-131.570585		46.782244		11.600280		-22.124087		89.625256		-9.863997		5.165915		-133.127977		45.373576		-9.102883		-32.746953		-31.000383		1.813643		3.431187		41.621885		0.683615		5.823717		113.407987		-20.645447		36.886747		75.205632		57.738560		-18.154936		-21.159371		58.500116		117.912848		-20.761771		45.349896		77.305038		68.291236		-49.028986		0.759582		81.830741		
0.414091		4.318593		-32.219581		90.056432		0.006404		1.721324		1.784323		88.104480		-14.012206		6.054227		-131.322398		46.605681		11.511520		-21.822581		89.352485		-9.948225		5.208733		-132.882321		45.380779		-8.962856		-32.632996		-30.647967		1.773382		3.547213		41.558998		0.734845		5.733376		114.385038		-20.585535		37.447591		74.869642		57.006165		-18.567264		-21.378765		57.845838		118.926594		-20.457591		45.790169		76.813198		67.874177		-49.218325		0.548224		82.175624		
0.416566		4.347240		-32.581514		90.070053		0.006470		1.722343		1.781213		88.008477		-13.902356		6.038264		-131.125139		46.442039		11.524930		-21.765022		89.194975		-9.963528		5.210067		-132.627011		45.341772		-8.932629		-32.609319		-30.155064		1.784015		3.592028		41.401839		0.706599		5.655213		115.291658		-20.372678		37.776769		74.367077		57.018007		-18.640067		-21.240285		57.741215		119.841923		-20.207881		46.163876		76.315902		67.909873		-49.158137		0.570917		82.206919		
0.419040		4.372061		-32.912682		90.067810		0.006496		1.723461		1.778000		87.856008		-13.787186		6.002351		-130.903384		46.254854		11.502777		-21.702219		88.991213		-9.985157		5.206412		-132.362887		45.308375		-8.889563		-32.581053		-29.694836		1.794460		3.645349		41.214864		0.690631		5.580185		116.175349		-20.185825		38.147186		73.897969		56.973156		-18.719269		-21.116819		57.637423		120.755557		-19.995544		46.578928		75.836929		67.926701		-49.082235		0.596589		82.251580		
0.421515		4.413252		-33.166150		90.054242		0.006518		1.724787		1.774603		87.592457		-13.652797		5.939500		-130.640997		45.992959		11.402259		-21.580776		88.674863		-10.027787		5.226299		-132.091161		45.263228		-8.819277		-32.526178		-29.331342		1.810050		3.714025		41.004047		0.668770		5.500435		117.091333		-20.090177		38.654932		73.505598		56.756765		-18.789180		-21.060916		57.566671		121.735813		-19.880901		47.161132		75.411241		67.876734		-48.978671		0.587797		82.358079		
0.423990		4.474063		-33.370558		90.063557		0.006484		1.726236		1.771120		87.267955		-13.524287		5.865050		-130.370344		45.724673		11.272609		-21.411495		88.297094		-10.065067		5.249668		-131.809843		45.229700		-8.755659		-32.448469		-29.020804		1.847683		3.772378		40.807295		0.647956		5.435354		118.011168		-19.986339		39.183449		73.067648		56.434874		-18.840841		-21.046430		57.593026		122.697275		-19.754550		47.743079		74.954097		67.756500		-48.902170		0.551229		82.469912		
0.426465		4.528593		-33.616566		90.097691		0.006340		1.727653		1.767625		86.993628		-13.448641		5.796030		-130.109796		45.533206		11.199189		-21.290846		87.957516		-10.081402		5.229944		-131.506229		45.211594		-8.724269		-32.390717		-28.651852		1.905093		3.810265		40.686967		0.632570		5.394494		118.802446		-19.772596		39.506202		72.582979		56.216249		-18.873057		-21.004703		57.684102		123.490177		-19.539103		48.086462		74.460667		67.659158		-48.874144		0.539580		82.505191		
0.428939		4.573507		-33.866944		90.128741		0.006136		1.729015		1.764064		86.711603		-13.406088		5.720775		-129.830517		45.321579		11.154370		-21.210329		87.623661		-10.077538		5.194725		-131.211266		45.180401		-8.712609		-32.348752		-28.259103		1.965561		3.841333		40.488621		0.597445		5.354992		119.552866		-19.568762		39.834813		72.109879		56.100209		-18.839297		-20.918495		57.853826		124.254132		-19.349095		48.451948		73.977949		67.614771		-48.820903		0.561432		82.513783		
